<svg xmlns="http://www.w3.org/2000/svg" xmlns:xlink="http://www.w3.org/1999/xlink" viewBox="0 0 32 32"><defs><style>.cls-1{fill:#fff;}.cls-2{fill:url(#linear-gradient);}.cls-3{fill:url(#linear-gradient-2);}.cls-4{fill:url(#linear-gradient-3);}.cls-5{fill:blue;}</style><linearGradient id="linear-gradient" x1="2" y1="16" x2="30" y2="16" gradientUnits="userSpaceOnUse"><stop offset="0" stop-color="#ae150b"/><stop offset="1" stop-color="#f33e41"/></linearGradient><linearGradient id="linear-gradient-2" x1="3" x2="29" xlink:href="#linear-gradient"/><linearGradient id="linear-gradient-3" x1="25.26" y1="9.34" x2="27.34" y2="9.34" gradientTransform="translate(4.69 -8.88) rotate(22.19)" gradientUnits="userSpaceOnUse"><stop offset="0" stop-color="#fff"/><stop offset="0.12" stop-color="#feeeee"/><stop offset="0.37" stop-color="#fac2c3"/><stop offset="0.71" stop-color="#f57c7e"/><stop offset="1" stop-color="#f03c3f"/></linearGradient></defs><g id="Layer_2" data-name="Layer 2"><rect class="cls-1" width="32" height="32" rx="7"/></g><g id="Layer_3" data-name="Layer 3"><path class="cls-2" d="M27.54,4.67A7.89,7.89,0,0,0,16,4.36,7.91,7.91,0,0,0,10.39,2,8,8,0,0,0,4.46,4.67a9.61,9.61,0,0,0-.29,12.51,2.34,2.34,0,0,0,.29.35L15.67,29.69A2.38,2.38,0,0,0,16,30a1.87,1.87,0,0,0,.32-.31L27.54,17.53a3.17,3.17,0,0,0,.29-.35A9.44,9.44,0,0,0,30,11.1,9.45,9.45,0,0,0,27.54,4.67ZM27.4,17.14a2.12,2.12,0,0,1-.27.34L16.31,29.2a2.18,2.18,0,0,1-.31.3,2.18,2.18,0,0,1-.31-.3L4.87,17.48a3,3,0,0,1-.28-.34A9.29,9.29,0,0,1,4.87,5.07,7.77,7.77,0,0,1,10.59,2.5,7.62,7.62,0,0,1,16,4.77a7.62,7.62,0,0,1,11.13.3,9.13,9.13,0,0,1,2.37,6.2A9.05,9.05,0,0,1,27.4,17.14Z"/><path class="cls-1" d="M27.13,5.07A7.62,7.62,0,0,0,16,4.77,7.62,7.62,0,0,0,10.59,2.5,7.77,7.77,0,0,0,4.87,5.07a9.29,9.29,0,0,0-.28,12.07,3,3,0,0,0,.28.34L15.69,29.2a2.18,2.18,0,0,0,.31.3,2.18,2.18,0,0,0,.31-.3L27.13,17.48a2.12,2.12,0,0,0,.27-.34,9.05,9.05,0,0,0,2.1-5.87A9.13,9.13,0,0,0,27.13,5.07Zm-.15,12a2.1,2.1,0,0,1-.26.33L16.3,28.71A2,2,0,0,1,16,29a1.64,1.64,0,0,1-.3-.29L5.28,17.42A2.1,2.1,0,0,1,5,17.09,8.92,8.92,0,0,1,5.28,5.48,7.5,7.5,0,0,1,10.79,3,7.33,7.33,0,0,1,16,5.19a7.33,7.33,0,0,1,10.72.29,8.8,8.8,0,0,1,2.28,6A8.66,8.66,0,0,1,27,17.09Z"/><path class="cls-3" d="M29,11.45a8.66,8.66,0,0,1-2,5.64,2.1,2.1,0,0,1-.26.33L16.3,28.71A2,2,0,0,1,16,29a1.64,1.64,0,0,1-.3-.29L5.28,17.42A2.1,2.1,0,0,1,5,17.09,8.92,8.92,0,0,1,5.28,5.48,7.5,7.5,0,0,1,10.79,3,7.33,7.33,0,0,1,16,5.19a7.33,7.33,0,0,1,10.72.29A8.8,8.8,0,0,1,29,11.45Z"/></g><g id="Layer_4" data-name="Layer 4"><path class="cls-1" d="M17.13,8c0,.05,0,.08-.1.08h-.29A3.34,3.34,0,0,0,15,8.73a5.52,5.52,0,0,0-1,.75A20.26,20.26,0,0,0,12.72,11a11.76,11.76,0,0,1-1.79,1.87,1,1,0,0,1-.25.16s0,0,0,0l.09-.09a4.41,4.41,0,0,0,.82-1.56c.25-.68.44-1.19.59-1.5a3.83,3.83,0,0,1,.46-.79L12.68,9a.05.05,0,0,0,0,0l0,0-.08.1c-.13.16-.45.57-.95,1.23a11.87,11.87,0,0,1-2.05,2.28,2.33,2.33,0,0,1-.56.38l0,0,0,0a5.57,5.57,0,0,0,1.16-1.66,4.32,4.32,0,0,0,.56-1.77,1.07,1.07,0,0,0-.22-.72.74.74,0,0,0-.6-.27,2.17,2.17,0,0,0-1.59.9,2.73,2.73,0,0,0-.79,1.8.85.85,0,0,0,.2.61.68.68,0,0,0,.54.24,1.69,1.69,0,0,0,1.32-1A2.15,2.15,0,0,0,10,10a.62.62,0,0,0-.11-.37.39.39,0,0,0-.3-.14.43.43,0,0,0-.22.06c-.07,0-.1.07-.1.11s0,0,0,0H9.4c.09,0,.14.05.14.15a.23.23,0,0,1-.08.17.23.23,0,0,1-.17.07c-.13,0-.19-.07-.19-.21a.34.34,0,0,1,.14-.28.46.46,0,0,1,.67,0A.59.59,0,0,1,10,10a2.32,2.32,0,0,1-.53,1.31,1.64,1.64,0,0,1-1.27.81.8.8,0,0,1-.64-.3,1.12,1.12,0,0,1-.25-.76,1.93,1.93,0,0,1,.23-.89,2.77,2.77,0,0,1,.62-.84A2.52,2.52,0,0,1,9.9,8.5a1,1,0,0,1,.81.38,1.36,1.36,0,0,1,.33.93,3,3,0,0,1-.49,1.44A5.8,5.8,0,0,1,9.36,12.7l-.07.07h0c.06,0,.27-.18.61-.54a28.16,28.16,0,0,0,2-2.42c.24-.31.47-.6.7-.85s.38-.37.43-.37l0,0s0,0,0,0a2.67,2.67,0,0,0-.32.53c-.09.2-.23.59-.41,1.15a10.43,10.43,0,0,1-.55,1.41,3.82,3.82,0,0,1-.65.9l0,0h0a2.11,2.11,0,0,0,.44-.4c.18-.19.69-.79,1.52-1.8a12.27,12.27,0,0,1,1.16-1.24,6.55,6.55,0,0,1,1.15-.81,3.23,3.23,0,0,1,1.52-.48C17.05,7.94,17.13,8,17.13,8Z"/><path class="cls-1" d="M14.39,11.75l-.05.08L14.2,12c-.42.52-.79.79-1.1.79a.5.5,0,0,1-.36-.16.53.53,0,0,1-.15-.39c0-.37.26-.7.78-1A1.48,1.48,0,0,1,14,11a.34.34,0,0,1,.19.07.21.21,0,0,1,.07.16.43.43,0,0,1-.29.38,3.73,3.73,0,0,1-1,.3,1,1,0,0,0-.21.53c0,.18.1.26.29.26s.73-.31,1.2-1c0,0,0,0,.06,0S14.39,11.74,14.39,11.75Zm-.26-.58c0-.06,0-.1-.11-.1a.79.79,0,0,0-.43.23,3.08,3.08,0,0,0-.52.59,2.24,2.24,0,0,0,.75-.32C14,11.43,14.13,11.3,14.13,11.17Z"/><path class="cls-1" d="M17.2,9.58c-.77,1.23-1.26,2-1.46,2.36a2,2,0,0,0-.31.66c0,.09,0,.14.13.14s.51-.33,1-1t0,0s0,0,0,0l0,0-.13.19c-.4.54-.68.81-.87.81a.3.3,0,0,1-.23-.11.4.4,0,0,1-.09-.27.93.93,0,0,1,.11-.39c-.36.51-.63.77-.81.77a.35.35,0,0,1-.27-.14.55.55,0,0,1-.11-.36,1.13,1.13,0,0,1,.63-.92,1.69,1.69,0,0,1,.79-.34.18.18,0,0,1,.2.19.45.45,0,0,1-.06.2l1.11-1.86a.69.69,0,0,0,.2,0Zm-1.49,1.67c0-.11-.05-.17-.15-.17s-.43.19-.74.56a1.63,1.63,0,0,0-.45.89c0,.14.05.21.17.21s.45-.29.85-.86A1.6,1.6,0,0,0,15.71,11.25Z"/><path class="cls-1" d="M19.39,9.58c-.78,1.23-1.27,2-1.47,2.36a2.11,2.11,0,0,0-.3.66c0,.09,0,.14.12.14s.51-.33,1-1t0,0s0,0,0,0l0,0-.13.19q-.59.81-.87.81a.3.3,0,0,1-.23-.11.4.4,0,0,1-.09-.27.93.93,0,0,1,.11-.39c-.36.51-.63.77-.8.77a.37.37,0,0,1-.28-.14.61.61,0,0,1-.11-.36,1.12,1.12,0,0,1,.64-.92,1.65,1.65,0,0,1,.79-.34.17.17,0,0,1,.19.19.58.58,0,0,1-.05.2L19,9.56l.2,0Zm-1.5,1.67c0-.11-.05-.17-.15-.17s-.43.19-.73.56a1.59,1.59,0,0,0-.46.89c0,.14.06.21.17.21s.45-.29.85-.86A1.46,1.46,0,0,0,17.89,11.25Z"/><path class="cls-1" d="M19.82,11.75l0,0-.14.19c-.38.54-.68.81-.89.81a.34.34,0,0,1-.24-.11.38.38,0,0,1-.1-.26,1.21,1.21,0,0,1,.22-.54l.48-.82.15,0,.24,0-.71,1.15a.88.88,0,0,0-.15.39c0,.09.05.14.15.14s.51-.33,1-1t0,0S19.82,11.73,19.82,11.75Zm-.05-1.29a.3.3,0,0,1-.09.21.28.28,0,0,1-.2.09.12.12,0,0,1-.14-.14.28.28,0,0,1,.1-.19.26.26,0,0,1,.2-.1A.12.12,0,0,1,19.77,10.46Z"/><path class="cls-1" d="M22.3,11.75a2.84,2.84,0,0,1-.44.6c-.25.29-.44.44-.58.44a.3.3,0,0,1-.24-.11.4.4,0,0,1-.09-.27.75.75,0,0,1,.05-.26c0-.08.14-.23.3-.47a1.29,1.29,0,0,0,.25-.47c0-.09,0-.13-.13-.13-.3,0-.76.56-1.39,1.68h-.39l.48-.77a2.45,2.45,0,0,0,.42-.82c0-.06,0-.09-.08-.09s-.32.22-.63.67c0,0,0,0,0,0s0,0,0,0v0l.06-.08c.32-.42.53-.64.64-.64a.24.24,0,0,1,.18.1.36.36,0,0,1,.08.23,1.1,1.1,0,0,1-.24.55,4.64,4.64,0,0,1,.57-.69.58.58,0,0,1,.36-.19.28.28,0,0,1,.23.12.4.4,0,0,1,.09.27,1.38,1.38,0,0,1-.28.64,1.47,1.47,0,0,0-.29.55c0,.09,0,.13.12.13s.5-.33.95-1l0,0S22.3,11.73,22.3,11.75Z"/><path class="cls-1" d="M24.42,11.75a2.09,2.09,0,0,1-.33.42,3.76,3.76,0,0,1-1,.74l-.16.28a3.83,3.83,0,0,1-.94,1.2,1.53,1.53,0,0,1-.87.41.33.33,0,0,1-.22-.08.27.27,0,0,1-.09-.2c0-.43.48-.85,1.44-1.29l.4-.19.52-1a7.57,7.57,0,0,1-.48.59.47.47,0,0,1-.29.13.32.32,0,0,1-.27-.15A.5.5,0,0,1,22,12.3a1.21,1.21,0,0,1,.7-1,1.53,1.53,0,0,1,.74-.3q.18,0,.18.21a.35.35,0,0,1,0,.13l.18-.31.14,0,.24,0a4.87,4.87,0,0,0-.27.46l-.77,1.33a4.28,4.28,0,0,0,.65-.44,5.36,5.36,0,0,0,.55-.62s0-.06.06-.06S24.42,11.74,24.42,11.75Zm-1.77,1.34-.35.18c-.94.46-1.42.88-1.42,1.25a.23.23,0,0,0,.08.17.24.24,0,0,0,.18.06.91.91,0,0,0,.66-.35,6.12,6.12,0,0,0,.81-1.25Zm1-1.85c0-.11-.05-.16-.15-.16s-.44.19-.74.56a1.59,1.59,0,0,0-.46.89q0,.21.18.21c.12,0,.33-.18.62-.55A2.24,2.24,0,0,0,23.63,11.24Z"/><path class="cls-1" d="M11,16.29a.48.48,0,0,1-.24.36,1.11,1.11,0,0,1,.22.59c0,.05,0,.07,0,.07s0,0,0-.09a1,1,0,0,0-.18-.54,3.67,3.67,0,0,1-1,.5,3.92,3.92,0,0,1-1.17.21H8.33a2,2,0,0,0-.42,1.14.74.74,0,0,0,.23.59.86.86,0,0,0,.63.22,1.71,1.71,0,0,0,1.35-.72,1.36,1.36,0,0,0,.36-.83.42.42,0,0,0-.13-.33.45.45,0,0,0-.33-.13,1.13,1.13,0,0,0-.71.35,1,1,0,0,0-.38.66,0,0,0,0,0,0,0H9a.22.22,0,0,1,.13-.06c.09,0,.13,0,.13.14s-.06.2-.19.2-.17-.07-.17-.21a1.07,1.07,0,0,1,.38-.75,1.15,1.15,0,0,1,.78-.38c.34,0,.51.19.51.56A1.38,1.38,0,0,1,10,18.9a1.88,1.88,0,0,1-1.23.47A1.09,1.09,0,0,1,8,19.06a1.06,1.06,0,0,1-.32-.78A1.71,1.71,0,0,1,8,17.35c-.77-.14-1.15-.44-1.15-.91a.81.81,0,0,1,.43-.69,1.94,1.94,0,0,1,1.06-.28,3.34,3.34,0,0,1,1.8.59,1.66,1.66,0,0,1,.32,0C10.78,16,11,16.12,11,16.29ZM10,16.07a3.35,3.35,0,0,0-1.71-.46,1.87,1.87,0,0,0-1,.26.76.76,0,0,0-.42.62c0,.43.36.7,1.08.82A3.32,3.32,0,0,1,10,16.07Zm.63.58a2,2,0,0,0-.55-.53,3.1,3.1,0,0,0-1,.47,3.29,3.29,0,0,0-.78.75,4.49,4.49,0,0,0,1.23-.2A3.7,3.7,0,0,0,10.66,16.65Zm.25-.36c0-.14-.14-.22-.42-.22a2.31,2.31,0,0,0-.32,0,2.34,2.34,0,0,1,.53.51A.48.48,0,0,0,10.91,16.29Z"/><path class="cls-1" d="M12.27,18.4s-.06.1-.16.2a.63.63,0,0,1-.43.23.37.37,0,0,1-.15,0c-.23.33-.45.5-.66.5a.35.35,0,0,1-.27-.13.5.5,0,0,1-.11-.32,1,1,0,0,1,.54-.78,1.14,1.14,0,0,1,.62-.27.21.21,0,0,1,.23.24,1.3,1.3,0,0,1-.33.74.27.27,0,0,0,.12,0A.53.53,0,0,0,12,18.7a1,1,0,0,0,.26-.27l0,0Zm-.44-.35c0-.15-.06-.22-.19-.22s-.36.16-.59.46a1.44,1.44,0,0,0-.35.78.16.16,0,0,0,.18.18c.19,0,.4-.15.63-.47a.21.21,0,0,1-.08-.17.43.43,0,0,1,.1-.27c.07-.09.14-.14.2-.14a.06.06,0,0,1,.06.05A.45.45,0,0,0,11.83,18.05Z"/><path class="cls-1" d="M14,18.41a2.47,2.47,0,0,1-.38.51c-.21.25-.38.38-.51.38a.27.27,0,0,1-.2-.09A.38.38,0,0,1,12.8,19a.66.66,0,0,1,.11-.29l-.06.07a4.62,4.62,0,0,1-.35.42.39.39,0,0,1-.24.12.27.27,0,0,1-.2-.09A.36.36,0,0,1,12,19a.7.7,0,0,1,.12-.35l.49-.81.14,0,.18,0-.63,1a.5.5,0,0,0-.1.28c0,.08,0,.12.1.12s.47-.33.86-1l.26-.44.14,0,.19,0-.43.69a1.82,1.82,0,0,0-.3.64.1.1,0,0,0,.11.11c.14,0,.37-.22.69-.67l.08-.11,0-.06s0,0,0,0S14,18.4,14,18.41Z"/><path class="cls-1" d="M16.1,18.41a2.63,2.63,0,0,1-.39.51c-.21.25-.37.38-.49.38a.25.25,0,0,1-.2-.09.32.32,0,0,1-.08-.23.54.54,0,0,1,0-.22c0-.07.12-.21.26-.41a1.36,1.36,0,0,0,.22-.4c0-.08,0-.11-.12-.11-.26,0-.66.48-1.19,1.44l-.16,0-.18,0,.42-.66a2.26,2.26,0,0,0,.35-.7c0-.06,0-.08-.06-.08s-.27.19-.54.57l0,0a0,0,0,0,1,0,0s0,0,0,0l.05-.07c.27-.36.45-.54.55-.54a.17.17,0,0,1,.15.08.32.32,0,0,1,.06.2,1,1,0,0,1-.19.47A3.22,3.22,0,0,1,15,18a.45.45,0,0,1,.31-.16.27.27,0,0,1,.2.09.4.4,0,0,1,.07.24,1.16,1.16,0,0,1-.24.54,1.3,1.3,0,0,0-.25.48.1.1,0,0,0,.11.11c.16,0,.43-.28.82-.84,0,0,0,0,0,0A0,0,0,0,1,16.1,18.41Z"/><path class="cls-1" d="M17.08,17.8l0,0h-.35l-.59,1a.55.55,0,0,0-.11.29.11.11,0,0,0,.12.12c.16,0,.43-.28.82-.84t0,0a0,0,0,0,1,0,0s0,0,0,0l-.12.16q-.5.69-.75.69a.29.29,0,0,1-.21-.09.36.36,0,0,1-.08-.23,1,1,0,0,1,.14-.4l.45-.74h-.27l0,0h.27l.31-.52a.57.57,0,0,0,.3,0l-.3.52Z"/><path class="cls-1" d="M19.4,16.55c-.66,1.06-1.08,1.73-1.25,2a1.54,1.54,0,0,0-.26.56c0,.08,0,.12.11.12s.43-.28.82-.84t0,0s0,0,0,0l0,0-.12.16c-.33.46-.58.69-.74.69a.25.25,0,0,1-.2-.09A.36.36,0,0,1,17.7,19a.86.86,0,0,1,.1-.33q-.47.66-.69.66a.31.31,0,0,1-.24-.12.49.49,0,0,1-.09-.3,1,1,0,0,1,.54-.8A1.4,1.4,0,0,1,18,17.8c.11,0,.17.05.17.16a.37.37,0,0,1-.05.16l.95-1.58.17,0ZM18.12,18c0-.1,0-.14-.12-.14s-.37.16-.63.47a1.37,1.37,0,0,0-.4.77q0,.18.15.18c.14,0,.38-.25.73-.74A1.27,1.27,0,0,0,18.12,18Z"/><path class="cls-1" d="M20.44,18.4s-.05.1-.16.2a.62.62,0,0,1-.43.23.32.32,0,0,1-.14,0c-.24.33-.46.5-.66.5a.35.35,0,0,1-.28-.13.5.5,0,0,1-.11-.32,1,1,0,0,1,.54-.78,1.17,1.17,0,0,1,.62-.27.21.21,0,0,1,.23.24,1.35,1.35,0,0,1-.32.74.2.2,0,0,0,.11,0,.53.53,0,0,0,.28-.11,1,1,0,0,0,.26-.27l.05,0ZM20,18.05c0-.15-.07-.22-.2-.22s-.35.16-.59.46a1.41,1.41,0,0,0-.34.78c0,.12.05.18.17.18s.4-.15.63-.47a.25.25,0,0,1-.08-.17.5.5,0,0,1,.1-.27.29.29,0,0,1,.21-.14s0,0,.05.05A.46.46,0,0,0,20,18.05Z"/><path class="cls-1" d="M22.75,18.4a.9.9,0,0,1-.17.21.62.62,0,0,1-.4.24.22.22,0,0,1-.2-.13,2.52,2.52,0,0,1-.38.45.44.44,0,0,1-.3.13A.31.31,0,0,1,21,19a.6.6,0,0,1,.07-.26c-.26.38-.47.58-.62.58a.27.27,0,0,1-.2-.09.37.37,0,0,1-.07-.23,1,1,0,0,1,.15-.42l.44-.74.16,0,.17,0-.6,1a.88.88,0,0,0-.14.34c0,.08,0,.12.11.12s.2-.09.35-.27a3.76,3.76,0,0,0,.48-.66l.29-.51h.33l-.55.9a1,1,0,0,0-.18.41c0,.09,0,.13.13.13s.4-.19.66-.57a1.25,1.25,0,0,1,0-.15,1,1,0,0,1,.15-.49c.1-.17.19-.25.29-.25s.06,0,.06.08a1.89,1.89,0,0,1-.44.81.21.21,0,0,0,.18.12c.13,0,.29-.12.49-.36a.15.15,0,0,1,.07-.06Z"/><path class="cls-1" d="M24.87,18.41a2.81,2.81,0,0,1-.38.51c-.21.25-.38.38-.5.38a.25.25,0,0,1-.2-.09.38.38,0,0,1-.08-.23.54.54,0,0,1,.05-.22,4.06,4.06,0,0,1,.25-.41,1.14,1.14,0,0,0,.22-.4.1.1,0,0,0-.11-.11q-.39,0-1.2,1.44l-.16,0-.17,0,.41-.66a2.16,2.16,0,0,0,.36-.7c0-.06,0-.08-.07-.08s-.27.19-.54.57l0,0a0,0,0,0,1,0,0v0l.05-.07c.27-.36.46-.54.55-.54a.17.17,0,0,1,.15.08.27.27,0,0,1,.07.2,1,1,0,0,1-.2.47,4.37,4.37,0,0,1,.48-.59.47.47,0,0,1,.31-.16.25.25,0,0,1,.2.09.41.41,0,0,1,.08.24,1.16,1.16,0,0,1-.24.54,1.3,1.3,0,0,0-.25.48c0,.07,0,.11.1.11s.43-.28.82-.84t0,0S24.87,18.4,24.87,18.41Z"/></g><g id="Layer_5" data-name="Layer 5"><path class="cls-1" d="M26,6.9A.24.24,0,0,0,25.6,7a.23.23,0,0,0-.2,0,.23.23,0,0,0-.14.16.38.38,0,0,0,.14.43h0l.49.29h0v0l.19-.54h0a.33.33,0,0,0,0-.24A.32.32,0,0,0,26,6.9Zm.15.43h0l-.19.52v0h0l-.47-.28h0a.37.37,0,0,1-.14-.41A.22.22,0,0,1,25.42,7a.21.21,0,0,1,.19,0A.23.23,0,0,1,26,6.92a.36.36,0,0,1,.15.19A.33.33,0,0,1,26.11,7.33Z"/><path class="cls-4" d="M26.6,9.81a.52.52,0,0,1-.29.29h0l-1.05.37h0a0,0,0,0,1,0,0l-.49-1,0,0a.52.52,0,0,1,.31-.7.69.69,0,0,1,.47,0,.59.59,0,0,1,.33.29.69.69,0,0,1,.79.34A.54.54,0,0,1,26.6,9.81Z"/></g><g id="Layer_6" data-name="Layer 6"><path class="cls-5" d="M21.51,25.51a.3.3,0,0,1,.27-.09.6.6,0,0,1,.36.26,2.83,2.83,0,0,1,.2.49c.07.22.15.51.23.86a.11.11,0,0,0,0,.06h0s0,0,0-.08,0-.31,0-.48,0-.35,0-.54a2.23,2.23,0,0,1,.21-1.06.1.1,0,0,1,.07-.05H23a.18.18,0,0,1,.11,0l.07.05,0,0,0,0c0,.17.09.33.13.5s.09.32.13.49.06.19.1.33l.16.44.18.47c.07.17.13.31.2.45s.12.24.17.33.1.14.14.15l0,0s0,0,0,0,.08.06.11,0a1.12,1.12,0,0,0,.12-.62.35.35,0,0,1,0-.07h0a.15.15,0,0,1,0,.06.89.89,0,0,1,0,.33.65.65,0,0,1-.1.31.15.15,0,0,1-.07,0h-.07l-.08,0-.06-.05a1,1,0,0,1-.11-.17c-.06-.1-.11-.21-.18-.34l-.2-.42c-.07-.15-.14-.3-.2-.45s-.12-.28-.17-.41l-.12-.31-.34-1.06a.23.23,0,0,0-.06-.12s-.07,0-.11,0a.35.35,0,0,0-.07.11,3.14,3.14,0,0,0-.17.92,4.17,4.17,0,0,0,0,.5,4.84,4.84,0,0,0,0,.53c0,.15,0,.28,0,.38s0,.19.05.26,0,.08,0,.1,0,0-.06,0a0,0,0,0,1,0,0v0a11.35,11.35,0,0,0-.56-2L22,25.63,22,25.56a.26.26,0,0,0-.4,0,1.65,1.65,0,0,0-.33.67,2.77,2.77,0,0,0-.11.48,2.38,2.38,0,0,0,0,.46.93.93,0,0,0,.17.67.09.09,0,0,0,.14,0,.35.35,0,0,0,.09-.07l.07-.08s0,0,0,0,0,0,0,.05a.41.41,0,0,1-.14.17c-.09.07-.19.05-.29-.05a1,1,0,0,1-.15-.64,3.71,3.71,0,0,1,0-.47,2.63,2.63,0,0,1,.1-.47,2.7,2.7,0,0,1,.17-.44A.94.94,0,0,1,21.51,25.51Z"/><path class="cls-5" d="M24.69,25.73a2.3,2.3,0,0,0-.16-.29l-.08-.13-.05-.08a3.92,3.92,0,0,1-.07.41,2.75,2.75,0,0,1-.14.47v0l0,0,0,0s-.06-.2-.14-.49t0,0l0,0a.38.38,0,0,1,0-.12c0-.06,0-.1.05-.12a0,0,0,0,1,.06,0,.92.92,0,0,0,0,.28,1.48,1.48,0,0,0,.07.3,0,0,0,0,0,0,0,0,0,0,0,0,0,0l0,0a1.56,1.56,0,0,0,.05-.16q0-.11.06-.24a1.62,1.62,0,0,0,0-.19c0-.05,0-.09,0-.13v-.05a.06.06,0,0,1,0,0s0,0,.06,0l0,0v0a.08.08,0,0,0,0,0c.06.11.14.28.24.49a5.77,5.77,0,0,1,.52-.64.64.64,0,0,1,.16-.14.06.06,0,0,1,.06,0h.14l.06,0s0,0,0,.05a.74.74,0,0,1,0,.25s0,0,0,0h0s0,0,0,0,0-.25-.07-.3-.1,0-.17,0l-.06.06-.08.08a5,5,0,0,0-.54.64c.66,1.4.73,2.4.21,3a1.08,1.08,0,0,1-.67.38.69.69,0,0,1-.63-.14.46.46,0,0,1-.11-.16,2.32,2.32,0,0,1,.31-1.57c.12-.25.24-.5.37-.74A7.56,7.56,0,0,1,24.69,25.73Zm-1,3a.16.16,0,0,0,0,.07.18.18,0,0,0,.05.07.62.62,0,0,0,.55.12,1.08,1.08,0,0,0,.63-.37,1.7,1.7,0,0,0,.23-1.57,3.94,3.94,0,0,0-.18-.65,6.21,6.21,0,0,0-.28-.66,9.61,9.61,0,0,0-.86,1.63A2,2,0,0,0,23.67,28.75Z"/><path class="cls-5" d="M25.82,24.58a1.6,1.6,0,0,1-.66.42.55.55,0,0,1-.6-.1,1.13,1.13,0,0,1-.25-.89,4.31,4.31,0,0,1,.22-1.21,2.93,2.93,0,0,1,.43-.92.64.64,0,0,1,.13-.15.58.58,0,0,1,.35-.22v-.06s0,0,0,0,0,0,0,0,0,0,0,.08a.33.33,0,0,1,.18.1.66.66,0,0,1,.14.2.85.85,0,0,1,.05.3,1.16,1.16,0,0,1-.05.45l0,0a.08.08,0,0,1-.06,0,.9.9,0,0,1-.2-.49,2.33,2.33,0,0,1-.06-.49c-.1,0-.22,0-.35.16l-.06.07L25,22a3.54,3.54,0,0,0-.5,1.37,2.32,2.32,0,0,0,.1,1.39,1.13,1.13,0,0,0,.1.13.48.48,0,0,0,.45.11,1.36,1.36,0,0,0,.64-.43,3.93,3.93,0,0,0,.34-.44c.1-.17.2-.35.29-.54s.13-.35.18-.51a2.61,2.61,0,0,0,.08-.46s0,0,0,0,0,0,0,0,0,0,0,0a2.63,2.63,0,0,1-.24,1,5.64,5.64,0,0,1-.29.55A3.08,3.08,0,0,1,25.82,24.58Zm-.09-2.07h0a0,0,0,0,0,0,0,1,1,0,0,0,0-.58l-.05-.1a.27.27,0,0,0-.07-.08.31.31,0,0,0-.13-.08,1.55,1.55,0,0,0,0,.21,1.12,1.12,0,0,0,.06.23A1.59,1.59,0,0,0,25.73,22.51Z"/></g></svg>