<?xml version="1.0" encoding="UTF-8"?>
<svg xmlns="http://www.w3.org/2000/svg" xmlns:xlink="http://www.w3.org/1999/xlink" viewBox="0 0 32 32">
  <defs>
    <style>
      .cls-1 {
        stroke: #fff;
        stroke-linecap: round;
        stroke-linejoin: round;
        stroke-width: .15px;
      }

      .cls-1, .cls-2 {
        fill: #fff;
      }

      .cls-3 {
        fill: url(#linear-gradient);
      }

      .cls-3, .cls-2, .cls-4, .cls-5, .cls-6 {
        stroke-width: 0px;
      }

      .cls-4 {
        fill: url(#linear-gradient-2);
      }

      .cls-5 {
        fill: url(#linear-gradient-3);
      }

      .cls-6 {
        fill: blue;
      }
    </style>
    <linearGradient id="linear-gradient" x1="2" y1="16" x2="30" y2="16" gradientUnits="userSpaceOnUse">
      <stop offset="0" stop-color="#ae150b"/>
      <stop offset="1" stop-color="#f33e41"/>
    </linearGradient>
    <linearGradient id="linear-gradient-2" x1="3" x2="29" xlink:href="#linear-gradient"/>
    <linearGradient id="linear-gradient-3" x1="25.85" y1="8.13" x2="27.93" y2="8.13" gradientTransform="translate(4.69 -8.88) rotate(22.19)" gradientUnits="userSpaceOnUse">
      <stop offset="0" stop-color="#fff"/>
      <stop offset=".12" stop-color="#fdeeee"/>
      <stop offset=".37" stop-color="#fac2c3"/>
      <stop offset=".71" stop-color="#f47c7e"/>
      <stop offset="1" stop-color="#f03c3f"/>
    </linearGradient>
  </defs>
  <g id="nen">
    <rect class="cls-2" width="32" height="32" rx="7" ry="7"/>
  </g>
  <g id="trai_tim" data-name="trai tim">
    <path class="cls-3" d="m27.54,4.67c-3.17-3.45-8.26-3.56-11.54-.31-1.59-1.58-3.59-2.36-5.61-2.36-2.15,0-4.29.89-5.93,2.67-3.18,3.44-3.28,8.94-.29,12.51.08.12.18.24.29.35l11.21,12.16c.11.11.21.23.33.31.12-.08.22-.2.32-.31l11.22-12.16c.1-.11.21-.23.29-.35,1.45-1.72,2.17-3.91,2.17-6.08,0-2.33-.82-4.66-2.46-6.43Zm-.14,12.47c-.07.12-.17.23-.27.34l-10.82,11.72c-.1.11-.2.22-.31.3-.11-.08-.21-.19-.31-.3l-10.82-11.72c-.1-.11-.2-.22-.28-.34-2.88-3.45-2.78-8.75.28-12.07,1.58-1.71,3.65-2.57,5.72-2.57,1.95,0,3.88.75,5.41,2.27,3.16-3.13,8.07-3.02,11.13.3,1.58,1.71,2.37,3.96,2.37,6.2,0,2.1-.69,4.21-2.1,5.87Z"/>
    <path class="cls-2" d="m27.13,5.07c-3.06-3.32-7.97-3.43-11.13-.3-1.53-1.52-3.46-2.27-5.41-2.27-2.07,0-4.14.86-5.72,2.57-3.06,3.32-3.16,8.62-.28,12.07.08.12.18.23.28.34l10.82,11.72c.1.11.2.22.31.3.11-.08.21-.19.31-.3l10.82-11.72c.1-.11.2-.22.27-.34,1.41-1.66,2.1-3.77,2.1-5.87,0-2.24-.79-4.49-2.37-6.2Zm-.15,12.02c-.07.12-.17.23-.26.33l-10.42,11.29c-.1.11-.19.21-.3.29-.11-.08-.21-.18-.3-.29l-10.42-11.29c-.09-.1-.19-.21-.26-.33-2.78-3.31-2.69-8.42.26-11.61,1.53-1.65,3.52-2.48,5.51-2.48,1.87,0,3.74.72,5.21,2.19,3.04-3.02,7.77-2.91,10.72.29,1.52,1.65,2.28,3.81,2.28,5.97,0,2.02-.66,4.05-2.02,5.64Z"/>
    <path class="cls-4" d="m29,11.45c0,2.02-.66,4.05-2.02,5.64-.07.12-.17.23-.26.33l-10.42,11.29c-.1.11-.19.21-.3.29-.11-.08-.21-.18-.3-.29l-10.42-11.29c-.09-.1-.19-.21-.26-.33-2.78-3.31-2.69-8.42.26-11.61,1.53-1.65,3.52-2.48,5.51-2.48,1.87,0,3.74.72,5.21,2.19,3.04-3.02,7.77-2.91,10.72.29,1.52,1.65,2.28,3.81,2.28,5.97Z"/>
  </g>
  <g id="trai_tim_nho" data-name="trai tim nho">
    <path class="cls-2" d="m25.96,5.9c-.14-.08-.3-.03-.36.12-.07-.04-.14-.04-.2-.02-.07.02-.12.08-.15.16-.05.15.01.34.15.43,0,0,0,0,.01,0l.49.29s0,0,.01,0c0,0,0,0,0-.01l.19-.54s0-.01,0-.02c.02-.08.02-.16,0-.23-.03-.08-.08-.15-.15-.19Zm.15.43s0,.01,0,.01l-.18.52s0,0,0,.01c0,0,0,0-.01,0l-.47-.28s0,0-.01,0c-.13-.09-.19-.27-.14-.41.03-.08.08-.13.14-.15.06-.02.13-.02.19.02.06-.14.21-.19.34-.11.07.04.12.11.15.19.03.07.03.15,0,.22Z"/>
    <path class="cls-5" d="m27.6,8.92c-.05.12-.15.23-.29.28,0,0-.02,0-.03.01l-1.05.37s-.02,0-.03,0c0,0-.01-.02-.02-.03l-.49-1s0-.02-.01-.03c-.12-.29.01-.6.31-.7.15-.05.32-.05.47.02.14.06.26.16.33.29.3-.09.65.06.79.34.07.15.07.3.02.43Z"/>
  </g>
  <g id="for_export" data-name="for export">
    <g>
      <path class="cls-1" d="m17.33,7.56c0,.06-.04.09-.11.09h-.05c-.07,0-.16-.01-.27-.01-.52,0-1.16.24-1.9.71-.42.27-.77.54-1.06.83-.29.29-.79.86-1.49,1.71-.84,1.02-1.5,1.71-1.98,2.06-.16.12-.25.17-.27.17-.01,0-.02,0-.02-.01,0,0,.03-.04.1-.1.29-.29.59-.87.9-1.72.28-.76.49-1.31.65-1.66s.33-.64.51-.87c.04-.05.07-.09.07-.09-.02,0-.03,0-.05.03l-.03.03-.08.11c-.15.18-.5.64-1.04,1.36-.86,1.17-1.62,2.01-2.27,2.52-.35.27-.56.41-.61.41-.01,0-.02-.01-.02-.02,0,0,.01-.02.04-.05.45-.41.87-1.02,1.28-1.84.41-.82.61-1.47.61-1.96,0-.33-.08-.6-.24-.79s-.38-.29-.66-.29c-.59,0-1.18.33-1.76.99-.58.66-.87,1.32-.87,1.99,0,.28.08.5.23.67.15.17.35.26.59.26.52,0,1-.35,1.46-1.06.3-.46.45-.87.45-1.22,0-.17-.04-.3-.12-.41-.08-.1-.19-.15-.33-.15-.08,0-.16.02-.24.06-.08.04-.12.08-.12.12,0,.01,0,.02.02.02,0,0,.02,0,.03,0,.06,0,.09-.01.11-.01.1,0,.15.06.15.17,0,.07-.03.13-.08.18-.05.05-.12.08-.19.08-.14,0-.21-.08-.21-.23,0-.12.05-.23.16-.32.1-.09.23-.14.36-.14.16,0,.28.06.38.17.09.11.14.27.14.45,0,.43-.2.91-.59,1.45-.44.59-.9.89-1.39.89-.29,0-.52-.11-.71-.33-.19-.22-.28-.5-.28-.83,0-.31.08-.64.25-.98.17-.34.4-.65.69-.93.65-.64,1.28-.95,1.88-.95.35,0,.65.14.89.42.24.28.36.62.36,1.02,0,.44-.18.96-.54,1.59s-.8,1.16-1.31,1.6c-.05.05-.08.07-.08.08,0,0,0,.01.01.01.07,0,.3-.2.68-.6.54-.56,1.28-1.45,2.2-2.67.26-.35.52-.66.78-.94s.41-.41.47-.41c.01,0,.02,0,.02.02,0,0,0,.02-.02.03-.14.19-.26.39-.35.58-.1.23-.25.65-.46,1.27-.22.68-.43,1.2-.61,1.55-.19.37-.43.7-.72.99,0,0,0,.02-.01.02,0,0,0,.01.01.01.04,0,.2-.15.49-.45.2-.21.76-.87,1.68-1.98.48-.58.9-1.03,1.28-1.37.38-.33.8-.63,1.27-.89.64-.36,1.2-.54,1.68-.54.16,0,.24.03.24.1Z"/>
      <path class="cls-1" d="m14.32,11.67s-.02.04-.06.09l-.15.18c-.47.58-.88.87-1.21.87-.16,0-.29-.06-.4-.17-.11-.12-.16-.26-.16-.43,0-.41.29-.77.86-1.08.3-.16.55-.25.73-.25.08,0,.15.02.21.07.06.05.09.11.09.18,0,.16-.11.3-.32.42-.21.12-.57.22-1.07.32-.15.23-.23.43-.23.59,0,.2.11.29.32.29.36,0,.8-.35,1.32-1.05.03-.04.05-.05.07-.05,0,0,.01,0,.01.02Zm-.29-.63c0-.07-.04-.11-.12-.11-.12,0-.28.08-.48.25-.2.17-.39.38-.58.65.33-.08.61-.2.83-.36.23-.15.34-.3.34-.44Z"/>
      <path class="cls-1" d="m17.42,9.28c-.85,1.36-1.39,2.23-1.62,2.6-.23.39-.34.63-.34.73s.05.15.14.15c.21,0,.56-.36,1.06-1.08.01-.02.03-.03.04-.03.01,0,.02,0,.02.02,0,0-.01.02-.03.05l-.15.2c-.43.6-.75.89-.95.89-.1,0-.19-.04-.26-.12-.07-.08-.1-.18-.1-.3s.04-.27.12-.43c-.4.56-.69.85-.89.85-.12,0-.22-.05-.3-.16-.08-.1-.12-.23-.12-.39,0-.38.23-.72.7-1.02.37-.24.66-.37.88-.37.14,0,.21.07.21.21,0,.06-.02.14-.06.22l1.22-2.04c.08.02.15.03.22.03.02,0,.09,0,.21-.01Zm-1.65,1.84c0-.12-.06-.18-.17-.18-.21,0-.48.2-.81.61-.34.41-.5.74-.5.99,0,.15.06.23.19.23.18,0,.5-.32.94-.95.24-.34.36-.58.36-.7Z"/>
      <path class="cls-1" d="m19.83,9.28c-.85,1.36-1.39,2.23-1.62,2.6-.23.39-.34.63-.34.73s.05.15.14.15c.21,0,.56-.36,1.06-1.08.01-.02.03-.03.04-.03.01,0,.02,0,.02.02,0,0-.01.02-.03.05l-.15.2c-.43.6-.75.89-.96.89-.11,0-.19-.04-.26-.12-.07-.08-.1-.18-.1-.3s.04-.27.12-.43c-.4.56-.7.85-.89.85-.12,0-.22-.05-.3-.16-.08-.1-.12-.23-.12-.39,0-.38.23-.72.7-1.02.37-.24.66-.37.88-.37.14,0,.21.07.21.21,0,.06-.02.14-.06.22l1.22-2.04c.08.02.15.03.22.03.02,0,.09,0,.21-.01Zm-1.65,1.84c0-.12-.06-.18-.17-.18-.21,0-.48.2-.81.61-.34.41-.5.74-.5.99,0,.15.06.23.19.23.18,0,.5-.32.94-.95.24-.34.36-.58.36-.7Z"/>
      <path class="cls-1" d="m20.31,11.67s-.01.02-.03.05l-.15.2c-.43.6-.76.89-.98.89-.11,0-.2-.04-.27-.11-.07-.08-.11-.17-.11-.29,0-.13.08-.33.24-.6l.53-.91c.07.02.13.02.17.02.06,0,.15,0,.26-.02l-.78,1.27c-.11.18-.17.33-.17.43s.05.15.16.15c.2,0,.56-.36,1.07-1.08.01-.02.02-.03.03-.03.01,0,.02,0,.02.02Zm-.05-1.41c0,.08-.03.15-.1.22-.07.07-.14.1-.22.1-.1,0-.15-.05-.15-.15,0-.08.04-.15.11-.22.07-.07.14-.1.22-.1.1,0,.15.05.15.15Z"/>
      <path class="cls-1" d="m23.05,11.67s-.17.27-.5.66c-.27.32-.48.49-.64.49-.1,0-.19-.04-.26-.12-.07-.08-.1-.18-.1-.29,0-.1.02-.2.06-.29.04-.09.15-.26.33-.52.18-.27.28-.45.28-.52,0-.09-.05-.14-.15-.14-.33,0-.85.62-1.54,1.85-.11,0-.18-.01-.2-.01-.08,0-.16,0-.23.01l.53-.84c.3-.48.46-.79.46-.91,0-.07-.03-.1-.09-.1-.12,0-.35.25-.69.74-.02.03-.04.05-.05.05-.01,0-.02,0-.02-.02,0-.01,0-.02.01-.03l.07-.09c.35-.47.58-.7.71-.7.08,0,.14.04.2.11s.08.15.08.25c0,.15-.09.35-.26.61.27-.37.48-.63.62-.76s.28-.21.4-.21c.1,0,.18.04.25.12s.1.18.1.3c0,.15-.11.39-.31.7-.21.32-.32.53-.32.62,0,.09.05.14.14.14.2,0,.55-.36,1.05-1.08.01-.02.02-.03.03-.03.01,0,.02,0,.02.02Z"/>
      <path class="cls-1" d="m25.39,11.67s-.12.19-.37.47c-.28.31-.63.58-1.07.82l-.17.31c-.31.57-.66,1.01-1.04,1.32-.37.3-.69.45-.96.45-.1,0-.18-.03-.24-.09-.06-.06-.1-.13-.1-.22,0-.47.53-.94,1.58-1.42.23-.1.38-.18.44-.21l.58-1.07c-.25.33-.43.55-.54.65-.1.1-.21.15-.32.15-.12,0-.22-.05-.3-.16s-.12-.23-.12-.38c0-.39.26-.75.77-1.07.34-.21.61-.32.81-.32.14,0,.21.08.21.23,0,.04-.01.09-.03.15l.19-.35c.06.02.12.02.16.02.06,0,.15,0,.26-.02-.02.02-.12.19-.3.51l-.85,1.46c.3-.17.54-.33.72-.49.18-.16.38-.38.61-.68.03-.05.06-.07.07-.07.01,0,.02,0,.02.02Zm-1.96,1.48s-.17.09-.39.19c-1.04.52-1.56.98-1.56,1.39,0,.07.03.13.08.18.05.05.12.07.2.07.25,0,.49-.13.73-.38.24-.26.53-.72.89-1.38l.04-.07Zm1.08-2.04c0-.12-.06-.17-.17-.17-.21,0-.48.2-.82.61-.34.41-.51.74-.51.99,0,.15.07.23.2.23s.36-.2.68-.61c.41-.51.61-.86.61-1.05Z"/>
      <path class="cls-1" d="m10.96,15.59c0,.11-.08.23-.24.36.15.21.22.41.22.59,0,.04-.01.07-.04.07-.02,0-.03-.03-.03-.09,0-.18-.06-.36-.19-.54-.26.19-.61.36-1.05.5-.44.14-.83.21-1.17.21-.05,0-.09,0-.12,0-.28.39-.42.77-.42,1.14,0,.25.08.45.23.59.15.14.37.22.63.22.5,0,.95-.24,1.35-.72.24-.29.36-.57.36-.83,0-.14-.04-.25-.12-.33-.08-.08-.19-.12-.33-.12-.22,0-.46.12-.71.35-.25.23-.38.45-.38.65,0,.02,0,.03.02.03,0,0,.02,0,.02-.01.05-.04.09-.06.13-.06.09,0,.13.05.13.15,0,.13-.06.2-.19.2-.12,0-.18-.07-.18-.21,0-.25.13-.5.38-.75s.52-.37.78-.37c.34,0,.51.19.51.56s-.18.74-.55,1.05c-.37.32-.78.48-1.23.48-.31,0-.58-.11-.79-.32-.21-.21-.32-.47-.32-.78s.11-.61.32-.93c-.77-.14-1.15-.44-1.15-.91,0-.28.14-.51.43-.69.28-.19.64-.28,1.06-.28.59,0,1.19.2,1.8.59.1-.02.21-.03.32-.03.35,0,.53.09.53.26Zm-.92-.22c-.54-.31-1.11-.47-1.72-.47-.38,0-.7.09-.98.27-.28.18-.42.38-.42.62,0,.42.36.7,1.08.82.45-.62,1.13-1.03,2.04-1.24Zm.62.57c-.14-.2-.32-.37-.55-.52-.33.09-.65.25-.97.47s-.57.47-.77.75c.37,0,.78-.07,1.23-.2s.8-.3,1.07-.49Zm.26-.35c0-.15-.14-.22-.42-.22-.09,0-.19.01-.32.04.21.15.38.31.52.51.15-.12.22-.23.22-.33Z"/>
      <path class="cls-1" d="m12.27,17.71s-.05.09-.16.2c-.16.15-.3.23-.43.23-.05,0-.1-.01-.15-.03-.23.33-.45.5-.66.5-.11,0-.2-.04-.27-.13-.08-.09-.11-.19-.11-.31,0-.27.18-.54.54-.79.25-.18.46-.27.62-.27.15,0,.23.08.23.24,0,.2-.11.45-.32.73.04.02.08.03.12.03.08,0,.17-.04.28-.11s.19-.16.26-.27c.02-.03.03-.04.04-.04,0,0,.01,0,.01.01Zm-.43-.36c0-.14-.06-.21-.19-.21-.16,0-.36.15-.59.46-.23.31-.35.57-.35.78,0,.12.06.18.17.18.19,0,.4-.16.63-.47-.05-.06-.08-.12-.08-.18,0-.09.03-.18.1-.27.07-.09.14-.14.2-.14.03,0,.05.02.06.05.03-.06.04-.13.04-.21Z"/>
      <path class="cls-1" d="m13.97,17.71s-.13.21-.39.52c-.21.25-.38.38-.5.38-.08,0-.14-.03-.2-.09-.05-.06-.08-.14-.08-.23,0-.07.03-.16.1-.29l-.05.07c-.16.21-.28.35-.36.42-.08.08-.16.12-.24.12s-.14-.03-.2-.09c-.05-.06-.08-.14-.08-.22,0-.1.04-.22.12-.35l.48-.81c.06.01.11.02.14.02s.09,0,.18-.02l-.63,1.04c-.06.11-.1.2-.1.28s.03.12.1.12c.18,0,.47-.33.86-1l.26-.44c.06.01.1.02.14.02.04,0,.11,0,.19-.02l-.42.69c-.2.33-.3.54-.3.63,0,.08.04.11.11.11.14,0,.37-.22.69-.67l.08-.11.05-.06s.02-.03.03-.03c.01,0,.02,0,.02.02Z"/>
      <path class="cls-1" d="m16.1,17.71s-.13.21-.39.52c-.21.25-.38.38-.5.38-.08,0-.15-.03-.2-.09-.05-.06-.08-.14-.08-.23,0-.08.02-.15.05-.22.03-.07.12-.2.26-.4.14-.21.21-.35.21-.41,0-.07-.04-.11-.11-.11-.26,0-.66.48-1.19,1.44-.09,0-.14-.01-.16-.01-.06,0-.12,0-.18.01l.41-.66c.24-.38.35-.61.35-.7,0-.05-.02-.08-.07-.08-.09,0-.27.19-.53.57-.02.02-.03.04-.04.04,0,0-.01,0-.02-.02,0,0,0-.02.01-.02l.05-.07c.27-.36.45-.54.55-.54.06,0,.11.03.15.08s.06.12.06.2c0,.11-.07.27-.2.47.21-.29.37-.49.48-.59.11-.11.22-.16.31-.16.08,0,.14.03.2.09.05.06.08.14.08.24,0,.12-.08.3-.24.54-.17.25-.25.41-.25.48s.04.11.11.11c.16,0,.43-.28.82-.84,0-.02.02-.03.03-.03.01,0,.02,0,.02.02Z"/>
      <path class="cls-1" d="m17.08,17.1l-.02.04h-.35l-.59,1.01c-.07.12-.11.22-.11.29,0,.08.04.12.12.12.16,0,.43-.28.82-.84.01-.02.02-.03.03-.03.01,0,.02,0,.02.02,0,0-.01.02-.03.04l-.11.16c-.33.46-.58.69-.75.69-.08,0-.15-.03-.21-.09-.06-.06-.08-.14-.08-.23,0-.11.05-.24.14-.4l.45-.75h-.27l.03-.04h.27l.31-.52c.05.01.1.02.15.02.05,0,.1,0,.15-.02l-.31.52h.35Z"/>
      <path class="cls-1" d="m19.4,15.85c-.66,1.05-1.08,1.73-1.25,2.02-.18.3-.26.49-.26.56s.04.12.11.12c.16,0,.44-.28.82-.84.01-.02.02-.03.03-.03.01,0,.02,0,.02.02,0,0,0,.02-.03.04l-.12.16c-.33.46-.58.69-.74.69-.08,0-.15-.03-.2-.09-.05-.06-.08-.14-.08-.24s.03-.21.1-.33c-.31.44-.54.66-.69.66-.09,0-.17-.04-.24-.12-.06-.08-.1-.18-.1-.3,0-.29.18-.56.54-.79.29-.19.51-.28.68-.28.11,0,.17.05.17.16,0,.05-.02.1-.04.17l.95-1.59c.06.02.12.03.17.03.01,0,.07,0,.16-.01Zm-1.28,1.42c0-.09-.04-.14-.13-.14-.16,0-.37.16-.63.48-.26.32-.39.57-.39.77,0,.12.05.18.15.18.14,0,.38-.25.73-.74.18-.26.28-.45.28-.54Z"/>
      <path class="cls-1" d="m20.44,17.71s-.05.09-.16.2c-.16.15-.3.23-.43.23-.06,0-.1-.01-.15-.03-.23.33-.45.5-.66.5-.11,0-.2-.04-.27-.13-.08-.09-.11-.19-.11-.31,0-.27.18-.54.54-.79.25-.18.46-.27.62-.27.15,0,.23.08.23.24,0,.2-.11.45-.32.73.04.02.08.03.12.03.08,0,.17-.04.28-.11s.19-.16.26-.27c.02-.03.03-.04.04-.04,0,0,.01,0,.01.01Zm-.43-.36c0-.14-.06-.21-.19-.21-.16,0-.36.15-.59.46-.23.31-.35.57-.35.78,0,.12.06.18.18.18.19,0,.4-.16.63-.47-.05-.06-.08-.12-.08-.18,0-.09.04-.18.1-.27.07-.09.14-.14.2-.14.03,0,.05.02.06.05.03-.06.04-.13.04-.21Z"/>
      <path class="cls-1" d="m22.75,17.7s-.06.09-.17.21c-.15.16-.29.24-.4.24-.08,0-.14-.04-.2-.13-.16.22-.29.37-.38.45-.1.08-.2.13-.3.13-.09,0-.17-.03-.23-.09-.06-.06-.09-.14-.09-.22,0-.07.02-.16.07-.27-.27.39-.47.58-.63.58-.08,0-.14-.03-.19-.09-.05-.06-.08-.14-.08-.22,0-.1.05-.24.16-.42l.44-.75c.07.01.12.02.16.02.03,0,.09,0,.17-.02l-.6.99c-.1.15-.14.27-.14.34,0,.08.04.12.11.12.08,0,.2-.09.36-.27.16-.18.32-.4.47-.66l.3-.51c.1,0,.16.01.18.01.06,0,.11,0,.15-.01l-.55.9c-.12.2-.18.34-.18.41,0,.09.05.13.14.13.18,0,.4-.19.66-.57-.01-.07-.02-.11-.02-.15,0-.16.05-.32.15-.49.1-.17.19-.25.29-.25.04,0,.06.03.06.08,0,.15-.14.42-.44.81.04.08.1.12.18.12.13,0,.3-.12.49-.36.04-.04.06-.06.07-.06,0,0,0,0,0,.01Z"/>
      <path class="cls-1" d="m24.87,17.71s-.13.21-.39.52c-.21.25-.38.38-.5.38-.08,0-.15-.03-.2-.09-.05-.06-.08-.14-.08-.23,0-.08.02-.15.05-.22.03-.07.12-.2.26-.4.14-.21.21-.35.21-.41,0-.07-.04-.11-.11-.11-.26,0-.66.48-1.19,1.44-.09,0-.14-.01-.16-.01-.06,0-.12,0-.18.01l.41-.66c.24-.38.35-.61.35-.7,0-.05-.02-.08-.07-.08-.09,0-.27.19-.53.57-.02.02-.03.04-.04.04,0,0-.01,0-.02-.02,0,0,0-.02.01-.02l.05-.07c.27-.36.45-.54.55-.54.06,0,.11.03.15.08.04.05.06.12.06.2,0,.11-.07.27-.2.47.21-.29.37-.49.48-.59.11-.11.22-.16.31-.16.08,0,.14.03.2.09.05.06.08.14.08.24,0,.12-.08.3-.24.54-.17.25-.25.41-.25.48s.04.11.11.11c.16,0,.43-.28.82-.84,0-.02.02-.03.03-.03.01,0,.02,0,.02.02Z"/>
    </g>
    <g>
      <path class="cls-6" d="m21.51,25.51c.08-.07.17-.1.27-.09.09,0,.18.05.26.14.04.04.07.08.1.12.06.11.13.28.2.5.07.22.15.51.23.85,0,.03.01.05.03.06,0,0,.01,0,.02,0,.01-.01.01-.04,0-.08-.01-.15-.02-.31-.02-.48,0-.17,0-.35,0-.55.02-.53.09-.88.22-1.06.02-.03.04-.05.07-.05.03,0,.06,0,.1,0,.05,0,.09,0,.11.03.03.02.05.04.07.06.01,0,.02.02.03.03,0,0,.01.02.02.03.05.17.09.33.13.49.04.16.09.33.14.49.02.08.06.19.1.33.04.13.1.28.15.44.06.16.12.32.18.48.07.16.13.31.19.44.06.13.12.25.18.33.05.09.1.14.14.15.01,0,.02.01.03.02,0,.01.01.02.02.03.05.05.08.06.11.03.07-.07.11-.28.12-.62,0-.04,0-.06,0-.06,0,0,.01,0,.01,0,0,0,.01.03.02.06.02.07.01.18,0,.33-.02.16-.06.26-.1.31-.02.02-.04.03-.06.03-.03,0-.05,0-.08,0-.03,0-.05-.01-.08-.03-.02-.01-.04-.03-.06-.04-.02-.03-.06-.09-.11-.18-.05-.09-.11-.2-.17-.33-.06-.13-.13-.27-.2-.42-.07-.15-.14-.3-.2-.45-.06-.15-.12-.28-.17-.41-.05-.13-.09-.23-.12-.31l-.34-1.06s-.04-.09-.06-.12c-.03-.03-.07-.03-.11.01-.02.03-.05.06-.07.12-.09.21-.15.52-.17.92,0,.17,0,.33,0,.5,0,.17.01.34.03.52.01.15.03.28.04.39.01.11.03.19.04.26,0,.04,0,.08-.02.1-.02.02-.04.02-.06,0,0,0,0,0-.01-.02,0,0,0-.02-.01-.03-.23-1.04-.42-1.71-.56-1.99-.02-.03-.04-.06-.06-.09-.02-.03-.04-.05-.06-.07-.13-.13-.27-.13-.4-.01-.12.11-.23.33-.33.66-.05.17-.08.33-.11.48-.02.15-.04.31-.04.46,0,.33.05.56.17.67.04.04.09.04.14,0,.03-.02.06-.05.09-.07s.05-.05.07-.08c.02-.02.03-.03.04-.02,0,0,0,.02-.01.05-.04.08-.09.13-.14.17-.09.07-.19.05-.29-.06-.1-.1-.15-.31-.15-.63,0-.16,0-.32.03-.47.02-.16.05-.31.1-.47.05-.17.11-.32.17-.44s.13-.22.21-.29Z"/>
      <path class="cls-6" d="m24.69,25.73c-.03-.07-.09-.17-.16-.29-.03-.05-.06-.09-.08-.13-.02-.03-.04-.06-.06-.08-.01.12-.03.25-.07.41-.04.21-.09.36-.14.46,0,.01-.01.02-.02.02-.01.01-.02.02-.04.02-.02,0-.03,0-.04-.02-.02-.03-.06-.2-.14-.49,0,0-.01-.02-.03-.03-.02-.01-.03-.03-.03-.04,0-.01,0-.05.03-.12.03-.07.04-.11.05-.12.02-.02.04-.02.06,0-.02.04-.01.13,0,.28.02.13.04.22.06.3,0,.01.01.02.02.03.01.01.03.02.04,0,.02-.01.03-.02.04-.04.02-.04.04-.1.06-.16.02-.07.04-.14.06-.24.01-.07.02-.13.03-.19s.01-.1.02-.13c0-.02,0-.03,0-.05,0-.02,0-.03.01-.04.02-.02.04-.04.06-.04.02,0,.04,0,.05.02,0,.01,0,.02,0,.03,0,.01,0,.03.01.04.06.11.15.27.25.49.16-.24.33-.45.51-.64.06-.07.12-.11.16-.14.02-.01.04-.02.06-.03.02,0,.05-.01.07-.01.02,0,.05,0,.07,0,.02,0,.04.02.06.03.02.02.03.03.03.05.01.05.01.13,0,.25,0,.02,0,.03-.01.04,0,0,0,0,0,0,0,0,0-.02,0-.04,0-.15-.01-.24-.07-.3-.04-.04-.1-.03-.17.03-.02.02-.04.04-.07.06-.02.02-.05.05-.08.08-.24.24-.41.46-.53.64.65,1.4.72,2.39.21,2.99-.17.2-.4.33-.67.38-.27.05-.48,0-.63-.13-.05-.05-.08-.1-.11-.16-.12-.31-.02-.84.31-1.57.11-.25.24-.5.37-.74.13-.24.28-.48.44-.72Zm-1.02,3.02s.02.05.04.08c.02.02.03.05.05.07.13.12.31.16.55.12.25-.05.46-.17.63-.36.3-.33.38-.86.23-1.57-.05-.22-.11-.44-.18-.66-.08-.22-.17-.44-.28-.65-.38.57-.67,1.11-.86,1.63-.24.62-.3,1.07-.18,1.35Z"/>
      <path class="cls-6" d="m25.82,24.58c-.21.21-.43.35-.66.42-.25.08-.46.05-.6-.09-.17-.17-.26-.47-.25-.89,0-.37.08-.78.22-1.21.13-.41.28-.72.43-.92.04-.05.08-.1.13-.15.13-.13.24-.2.35-.21v-.07s0-.02.01-.03c.01,0,.02,0,.03,0,0,0,0,.03.01.08.05,0,.11.04.17.1.06.06.11.13.14.21.03.08.05.18.05.3.01.15,0,.3-.05.45,0,0-.02.02-.04.04-.03.02-.05.03-.06.03-.09-.09-.16-.25-.21-.49-.04-.18-.06-.35-.06-.49-.09-.03-.21.03-.35.17-.02.02-.04.04-.06.06-.02.02-.04.05-.06.08-.23.34-.4.8-.5,1.38-.1.61-.07,1.07.1,1.38.03.05.06.09.1.13.12.11.27.15.45.11.21-.05.42-.19.64-.42.12-.13.24-.28.34-.45.1-.16.2-.34.29-.53.08-.18.14-.35.18-.51.04-.16.07-.31.08-.46,0-.02,0-.04.01-.05,0,0,.01,0,.02,0,0,0,0,.02,0,.04,0,.3-.09.64-.25,1.02-.09.2-.18.38-.29.55s-.22.31-.35.44Zm-.09-2.07s.02.02.03.01c.01,0,.02,0,.02-.02.05-.21.04-.4-.03-.58-.01-.04-.03-.07-.05-.1-.02-.03-.04-.06-.07-.08-.04-.04-.09-.07-.13-.08,0,.07,0,.13.01.21,0,.07.03.15.05.24.05.16.1.3.17.4Z"/>
    </g>
  </g>
</svg>